<svg width="32" height="32" viewBox="0 0 24 24" fill="none" xmlns="http://www.w3.org/2000/svg">
<path d="M4 2H20C21.1 2 22 2.9 22 4V20C22 21.1 21.1 22 20 22H4C2.9 22 2 21.1 2 20V4C2 2.9 2.9 2 4 2Z" fill="#059669"/>
<path d="M6 2H18C19.1 2 20 2.9 20 4V20C20 21.1 19.1 22 18 22H6C4.9 22 4 21.1 4 20V4C4 2.9 4.9 2 6 2Z" fill="#10B981"/>
<path d="M8 2H16C17.1 2 18 2.9 18 4V20C18 21.1 17.1 22 16 22H8C6.9 22 6 21.1 6 20V4C6 2.9 6.9 2 8 2Z" fill="#06B6D4"/>
<rect x="7" y="5" width="10" height="1" fill="#FFFFFF" opacity="0.9"/>
<rect x="7" y="7" width="8" height="1" fill="#FFFFFF" opacity="0.7"/>
<rect x="7" y="9" width="9" height="1" fill="#FFFFFF" opacity="0.7"/>
<rect x="7" y="11" width="7" height="1" fill="#FFFFFF" opacity="0.7"/>
</svg>
